<svg width="160" height="150" viewBox="0 0 160 150" fill="none" xmlns="http://www.w3.org/2000/svg">
<path fill-rule="evenodd" clip-rule="evenodd" d="M58 1.69862C56.075 2.73662 53.487 5.06962 52.25 6.88162C50.294 9.74762 50 11.4596 50 19.9686V29.7586L31.582 30.0706L13.165 30.3826L8.832 33.3956C6.303 35.1556 3.564 38.2606 2.25 40.8576C0.017 45.2716 0 45.6496 0 89.6266C0 127.368 0.23 134.497 1.548 137.651C3.612 142.593 6.659 145.759 11.5 147.993C15.257 149.727 19.389 149.839 79.5 149.839C139.27 149.839 143.765 149.719 147.509 148.018C152.125 145.921 157.622 140.092 158.736 136.115C159.733 132.55 159.733 47.2156 158.736 43.6506C157.622 39.6736 152.125 33.8446 147.509 31.7476C144.153 30.2236 140.789 29.9226 126.866 29.9046L110.233 29.8826L109.832 19.9096C109.401 9.17762 108.407 6.77162 102.618 2.44462C100.093 0.556625 98.241 0.358624 80.68 0.0966241C63.453 -0.159376 61.144 0.00362432 58 1.69862ZM98.443 12.1056C99.528 13.6546 100 16.6846 100 22.1056V29.8826H80H60V20.9326C60 13.4636 60.29 11.8136 61.75 10.9626C62.743 10.3846 70.725 9.93063 80.193 9.91263C96.327 9.88363 96.939 9.95762 98.443 12.1056ZM146.234 42.7986L149.5 45.7136L149.816 62.7986L150.132 79.8826H80.066H10V63.3166C10 53.9146 10.443 45.9226 11.025 44.8356C13.649 39.9336 13.197 39.9656 80.234 39.9226L142.968 39.8826L146.234 42.7986ZM55 99.3266C55 107.866 55.231 109.04 57.411 111.577L59.823 114.383L78.829 114.693L97.835 115.003L101.167 112.026C104.444 109.1 104.506 108.887 104.847 99.4656L105.193 89.8826H127.651H150.108L149.804 111.967L149.5 134.051L146.21 136.988L142.92 139.926L78.873 139.655L14.826 139.383L12.413 136.577C10.021 133.796 10 133.582 10 111.827V89.8826H32.5H55V99.3266ZM95 97.3826V104.883H80H65V97.3826V89.8826H80H95V97.3826Z" fill="white"/>
</svg>
