<svg width="160" height="175" viewBox="0 0 160 175" fill="none" xmlns="http://www.w3.org/2000/svg">
<path fill-rule="evenodd" clip-rule="evenodd" d="M74 0.632621C71.931 1.42462 15.602 33.3916 9.805 37.0646C6.462 39.1816 4.375 41.5146 2.555 45.1656L0 50.2936V86.7306C0 126.358 0.258 128.629 5.416 134.406C8.102 137.414 49.634 161.561 70.124 172.028C76.744 175.41 82.595 175.728 88.5 173.028C95.497 169.829 151.401 137.78 153.882 135.546C155.192 134.366 157.095 131.601 158.11 129.401C159.802 125.734 159.956 122.234 159.956 87.4006C159.956 52.5676 159.802 49.0676 158.11 45.4006C157.095 43.2006 155.192 40.4356 153.882 39.2556C151.401 37.0216 95.497 4.97262 88.5 1.77362C84.663 0.0186194 77.149 -0.572379 74 0.632621ZM143.95 44.9006C143.973 45.7686 121.145 61.4006 119.853 61.4006C118.812 61.4006 111.149 48.7736 95.176 20.7326L91.947 15.0646L117.942 29.7326C132.239 37.7996 143.942 44.6256 143.95 44.9006ZM65.27 20.7036C63.747 23.3456 57.788 33.6956 52.03 43.7036C46.271 53.7116 41.236 61.9006 40.841 61.9006C39.705 61.9006 17 45.8126 17 45.0076C17 44.2856 65.811 16.0856 67.27 15.9646C67.694 15.9296 66.794 18.0616 65.27 20.7036ZM94.939 40.6506L108.897 64.9006H80.365C64.673 64.9006 51.983 64.5136 52.167 64.0416C53.512 60.5746 79.658 15.9916 80.241 16.1716C80.648 16.2976 87.262 27.3136 94.939 40.6506ZM23.511 62.5066L35.774 71.1136L23.782 89.7566C17.187 100.011 11.388 108.828 10.895 109.351C10.367 109.912 10 98.7416 10 82.1006C10 66.5906 10.281 53.9006 10.624 53.9006C10.967 53.9006 16.766 57.7736 23.511 62.5066ZM150 82.0676C150 97.5586 149.828 110.047 149.619 109.818C149.409 109.588 143.758 100.893 137.061 90.4936C127.089 75.0076 125.122 71.3556 126.193 70.3096C128.199 68.3516 148.4 54.0266 149.25 53.9596C149.662 53.9276 150 66.5756 150 82.0676ZM95.599 98.1506C88.296 110.938 81.863 122.242 81.304 123.27C80.449 124.842 78.049 121.224 66.144 100.406C58.365 86.8026 52 75.4996 52 75.2866C52 75.0746 64.798 74.9006 80.439 74.9006H108.878L95.599 98.1506ZM57.287 105.401C64.654 118.051 70.561 128.556 70.413 128.746C70.265 128.935 57.727 127.822 42.551 126.271C19.297 123.894 15.048 123.218 15.528 121.966C15.842 121.15 22 111.314 29.213 100.108C38.082 86.3286 42.58 80.1656 43.11 81.0676C43.54 81.8006 49.92 92.7506 57.287 105.401ZM131.89 101.268C139.1 112.469 145 122.057 145 122.574C145 123.508 91.217 129.451 90.376 128.61C89.775 128.01 117.074 80.9006 118.022 80.9006C118.439 80.9006 124.679 90.0656 131.89 101.268ZM51.94 137.409C64.282 138.779 74.52 139.901 74.69 139.901C74.861 139.901 75 145.076 75 151.401C75 157.726 74.757 162.901 74.459 162.901C74.162 162.901 63.699 157.12 51.209 150.055C38.719 142.99 27.6 136.704 26.5 136.086C24.602 135.019 24.628 134.961 27 134.939C28.375 134.927 39.598 136.038 51.94 137.409ZM134.917 135.286C134.106 136.035 88.274 161.859 86.649 162.482C85.175 163.048 85 161.882 85 151.508C85 142.921 85.325 139.885 86.25 139.841C86.938 139.808 96.5 138.74 107.5 137.468C127.071 135.206 135.752 134.515 134.917 135.286Z" fill="white"/>
</svg>
