<svg width="120" height="160" viewBox="0 0 120 160" fill="none" xmlns="http://www.w3.org/2000/svg">
<path fill-rule="evenodd" clip-rule="evenodd" d="M1.74522 1.02342C-2.06478 3.24242 0.735216 22.5204 6.54922 34.0974C12.9232 46.7884 24.7092 59.7444 42.2242 73.3134L50.9522 80.0764L41.2242 87.6164C23.2902 101.515 12.6672 113.325 6.39121 126.341C2.32621 134.773 -0.226785 145.736 0.186215 152.986C0.468215 157.927 0.746214 158.492 3.35021 159.403C5.80421 160.263 6.47021 160.075 8.10021 158.062C9.14222 156.775 9.99522 154.417 9.99522 152.823V149.924L59.7452 150.184L109.495 150.443L109.995 154.423C110.406 157.695 111.004 158.582 113.35 159.403C115.817 160.267 116.47 160.075 118.159 157.988C119.845 155.907 120.02 154.668 119.428 149.008C118.656 141.629 115.773 131.44 112.761 125.443C107.159 114.291 94.1162 100.001 77.9952 87.3554C73.3202 83.6874 69.4952 80.3514 69.4952 79.9414C69.4952 79.5324 71.9702 77.2634 74.9952 74.9004C94.2232 59.8794 102.953 50.8974 110.49 38.3814C114.798 31.2274 118.508 19.8174 119.435 10.8784C120.02 5.22442 119.843 3.97742 118.159 1.89842C116.47 -0.188584 115.817 -0.380583 113.35 0.483417C111.004 1.30442 110.406 2.19142 109.995 5.46342L109.495 9.44342L59.7452 9.70242L9.99522 9.96242V7.17542C9.99522 1.58242 5.95622 -1.42958 1.74522 1.02342ZM106.037 24.8354C104.977 27.5264 102.695 32.0264 100.966 34.8354L97.8232 39.9434H59.9822H22.1402L20.0892 37.3364C17.8942 34.5454 11.9952 22.5964 11.9952 20.9404C11.9952 20.2914 28.7422 19.9434 59.9802 19.9434H107.966L106.037 24.8354ZM84.9412 53.5154C81.0882 57.5094 63.0182 71.6134 60.5332 72.5674C58.9022 73.1934 45.7332 63.6934 35.4952 54.5074L30.4952 50.0204L59.4412 49.9814L88.3872 49.9434L84.9412 53.5154ZM69.1142 93.2974C73.7482 96.7924 80.0042 101.95 83.0172 104.759L88.4952 109.867L59.4952 109.862L30.4952 109.858L34.9952 105.817C42.0772 99.4584 58.3812 86.9504 59.5932 86.9464C60.1962 86.9444 64.4812 89.8024 69.1142 93.2974ZM102.149 127.443C104.24 131.293 106.387 135.681 106.921 137.193L107.891 139.943H59.9432C22.2502 139.943 11.9962 139.676 11.9982 138.693C12.0022 136.942 18.5912 124.046 20.6362 121.787C22.2382 120.017 24.3122 119.933 60.3372 120.181L98.3472 120.443L102.149 127.443Z" fill="white"/>
</svg>
