<svg width="175" height="172" viewBox="0 0 175 172" fill="none" xmlns="http://www.w3.org/2000/svg">
<path fill-rule="evenodd" clip-rule="evenodd" d="M75.3323 1.19657C72.3903 2.47857 66.4973 8.36457 65.6693 10.8486C65.3513 11.8016 64.7603 11.8246 63.1193 10.9456C57.3823 7.87557 48.6303 10.6296 43.4223 17.1436L40.3513 20.9846L40.0523 55.5106L39.7523 90.0356L33.0523 83.5746C25.4363 76.2306 20.9583 74.2596 14.1983 75.2736C8.70629 76.0966 2.50929 81.2796 0.790289 86.4876C-0.871711 91.5226 0.15429 98.2716 3.24229 102.615C4.68529 104.643 15.3003 115.367 26.8313 126.445C46.3773 145.223 48.4263 146.896 57.0743 151.144C66.5573 155.801 74.1583 158.153 83.7713 159.402L89.1913 160.106L84.7713 154.639C80.6643 149.558 79.7413 148.978 71.7193 146.431C58.4933 142.232 51.0273 136.651 29.1013 114.571C8.16829 93.4916 7.37029 92.1926 12.3063 87.2576C16.8413 82.7216 19.0613 83.7206 31.3073 95.8026C39.8753 104.256 43.0733 106.803 45.1183 106.803C46.7273 106.803 48.1903 106.037 48.8163 104.869C49.4793 103.63 49.8513 88.8706 49.8513 63.8226V24.7116L52.3063 22.2576C55.4343 19.1286 59.2683 19.1286 62.3963 22.2576L64.8513 24.7116V50.6856C64.8513 72.9656 65.0753 76.8836 66.4223 78.2316C68.5103 80.3186 71.1653 80.2186 73.1963 77.9736C74.6603 76.3556 74.8513 72.6076 74.8513 45.4286V14.7116L77.3063 12.2576C78.6563 10.9076 80.9263 9.80257 82.3513 9.80257C83.7763 9.80257 86.0463 10.9076 87.3963 12.2576L89.8513 14.7116V45.6856C89.8513 72.5106 90.0623 76.8706 91.4223 78.2316C93.5103 80.3186 96.1653 80.2186 98.1963 77.9736C99.6463 76.3716 99.8513 72.9546 99.8513 50.4286V24.7116L102.306 22.2576C103.656 20.9076 105.926 19.8026 107.351 19.8026C108.776 19.8026 111.046 20.9076 112.396 22.2576L114.851 24.7116V50.6856C114.851 72.9656 115.075 76.8836 116.422 78.2316C118.51 80.3186 121.165 80.2186 123.196 77.9736C124.588 76.4356 124.851 73.6496 124.851 60.4286C124.851 45.0746 124.908 44.6546 127.306 42.2576C130.434 39.1286 134.268 39.1286 137.396 42.2576C139.827 44.6876 139.851 44.8956 139.851 63.3246C139.851 80.5716 139.979 81.9016 141.601 81.4446C142.564 81.1736 144.84 80.6516 146.66 80.2846L149.968 79.6176L149.66 60.3796L149.351 41.1406L146.459 37.3526C142.557 32.2416 135.99 29.3896 129.807 30.1216L125.094 30.6796L124.615 25.7016C123.652 15.6736 113.776 8.39857 103.88 10.4256L98.9493 11.4356L96.6503 7.86957C92.3683 1.22657 82.4143 -1.88943 75.3323 1.19657ZM100.736 96.1826C95.1273 98.1866 91.1103 101.506 88.1053 106.618C85.7563 110.613 85.3513 112.415 85.3513 118.855C85.3513 125.559 85.7703 127.254 89.0813 133.955C93.3633 142.619 105.75 156.496 117.667 165.981C126.624 173.11 130.682 173.675 138.021 168.814C144.438 164.563 159.124 150.595 164.441 143.686C171.731 134.212 174.337 127.645 174.344 118.725C174.35 112.028 173.999 110.576 171.325 106.251C169.449 103.217 166.437 100.205 163.403 98.3286C159.161 95.7066 157.563 95.3026 151.429 95.3026C145.506 95.3026 143.587 95.7516 139.666 98.0566C137.09 99.5706 133.973 102.271 132.74 104.057C131.507 105.842 130.399 107.445 130.276 107.618C130.154 107.792 127.951 105.686 125.38 102.938C118.441 95.5186 109.473 93.0596 100.736 96.1826ZM113.743 106.247C115.279 107.041 119.101 110.866 122.236 114.747C127.572 121.351 129.925 122.814 132.357 121.038C132.91 120.634 135.308 117.687 137.687 114.489C142.578 107.914 146.96 104.81 151.351 104.81C157.925 104.81 164.841 111.981 164.846 118.803C164.85 123.522 160.186 133.03 154.391 140.117C148.848 146.896 132.082 161.803 130.001 161.803C127.86 161.803 115.537 151.375 108.214 143.367C100.847 135.309 94.8513 124.333 94.8513 118.903C94.8513 108.83 105.257 101.859 113.743 106.247Z" fill="white"/>
</svg>
