<svg width="28" height="27" viewBox="0 0 28 27" fill="none" xmlns="http://www.w3.org/2000/svg">
<path d="M6.02679 27H0.421875V8.95978H6.02679V27ZM3.1942 6.54637C1.44643 6.54637 0 5.03799 0 3.22793C0 2.08156 0.602679 0.995531 1.56696 0.452514C2.59152 -0.150838 3.85714 -0.150838 4.82143 0.452514C5.84598 0.995531 6.44866 2.08156 6.44866 3.22793C6.44866 5.03799 5.00223 6.54637 3.1942 6.54637ZM26.9397 27H21.3951V18.2514C21.3951 16.1397 21.3348 13.4849 18.442 13.4849C15.5491 13.4849 15.1272 15.7173 15.1272 18.0704V27H9.52232V8.95978H14.8862V11.4335H14.9464C15.7299 10.0458 17.5379 8.53743 20.25 8.53743C25.9152 8.53743 27 12.2782 27 17.105V27H26.9397Z" fill="white"/>
</svg>
