<svg width="284" height="94" viewBox="0 0 284 94" fill="none" xmlns="http://www.w3.org/2000/svg">
<mask id="mask0_227_407" style="mask-type:luminance" maskUnits="userSpaceOnUse" x="0" y="0" width="71" height="94">
<path d="M0 0H70.1857V93.3835H0V0Z" fill="white"/>
</mask>
<g mask="url(#mask0_227_407)">
<path fill-rule="evenodd" clip-rule="evenodd" d="M62.1012 46.3528C57.1985 41.45 50.6401 38.5812 43.7405 38.2929C42.9598 42.7289 40.8346 46.8523 37.6075 50.0809C33.4669 54.2215 27.8505 56.5479 21.9943 56.5479C20.2416 56.5479 18.5103 56.3381 16.8332 55.9356C18.2077 52.376 20.3172 49.1032 23.069 46.3528C28.2444 41.1774 35.2653 38.2686 42.5844 38.2686L43.7405 38.2929C43.9618 37.0368 44.0745 35.758 44.0745 34.4677L44.0288 33.0547L42.5844 33.1203C38.1926 33.1203 33.9807 31.3748 30.8749 28.2675C27.7691 25.1646 26.025 20.9498 26.025 16.5595C26.025 15.2963 26.1691 14.0503 26.4474 12.8414C24.993 12.5402 23.5015 12.3861 21.9943 12.3861C16.1381 12.3861 10.5217 14.714 6.38113 18.8545C2.24055 22.9937 -0.0859375 28.6115 -0.0859375 34.4677C-0.0859375 40.3239 2.24055 45.9403 6.38113 50.0809C9.28282 52.9826 12.9081 54.9922 16.8332 55.9342C15.6229 59.0742 14.9849 62.4398 14.9849 65.8682C14.9849 73.1888 17.8923 80.2096 23.069 85.385C28.2444 90.5618 35.2653 93.4692 42.5844 93.4692C49.905 93.4692 56.9259 90.5618 62.1012 85.385C67.2766 80.2096 70.1854 73.1888 70.1854 65.8682C70.1854 58.5476 67.2766 51.5267 62.1012 46.3528ZM37.6075 18.8545C41.414 22.6611 43.6877 27.7152 44.0288 33.0547C47.8925 32.7193 51.5321 31.0308 54.2954 28.2675C57.3997 25.1646 59.1453 20.9498 59.1453 16.5595C59.1453 12.1677 57.3997 7.95431 54.2954 4.84994C51.1896 1.74272 46.9762 0 42.5844 0C38.1926 0 33.9807 1.74272 30.8749 4.84994C28.6612 7.06225 27.1397 9.83833 26.4474 12.8414C30.6437 13.7049 34.5331 15.7787 37.6075 18.8545Z" fill="#FFFFFE"/>
</g>
<path fill-rule="evenodd" clip-rule="evenodd" d="M56.0601 54.544H65.7756V46.19H70.9282C76.5574 46.19 80.0914 42.6575 80.0914 36.9897C80.0914 30.1087 75.3071 26.796 68.8301 26.796H56.0601V54.544ZM65.7756 34.3777H66.7319C68.3876 34.3777 70.4486 34.4876 70.4486 36.6586C70.4486 38.9037 68.536 39.1977 66.769 39.1977H65.7756V34.3777ZM82.8504 54.544H92.713V45.6377H92.8971L97.3131 54.544H108.943L102.907 45.5278C102.354 44.7185 101.729 44.276 101.214 43.8721V43.6509C104.968 42.3991 106.588 40.6336 106.588 36.4373C106.588 29.4464 101.288 26.796 95.0323 26.796H82.8504V54.544ZM92.713 34.3777H93.4865C95.215 34.3777 96.7251 34.6346 96.7251 36.7699C96.7251 38.8295 95.068 39.0878 93.4123 39.0878H92.713V34.3777ZM125.06 26.3549C116.633 26.3549 109.715 32.0213 109.715 40.7435C109.715 49.6498 116.596 54.985 125.06 54.985C133.525 54.985 140.406 49.6498 140.406 40.7435C140.406 32.0213 133.488 26.3549 125.06 26.3549ZM125.06 35.481C128.263 35.481 130.249 37.9474 130.249 40.8905C130.249 44.0562 128.116 46.2271 125.06 46.2271C122.005 46.2271 119.871 44.0562 119.871 40.8905C119.871 37.9474 121.858 35.481 125.06 35.481Z" fill="#F4B827"/>
<path fill-rule="evenodd" clip-rule="evenodd" d="M277.118 47.646L280.284 54.6012H284L270.751 25.6771L257.504 54.6012H261.221L264.385 47.646H277.118ZM275.682 44.4817H265.819L270.751 33.2574L275.682 44.4817Z" fill="#FFFFFE"/>
<path fill-rule="evenodd" clip-rule="evenodd" d="M241.827 38.8881V26.8546H238.368V54.6011H241.827V43.0101L243.226 41.6841L253.675 54.6011H258.351L245.653 39.3291L258.13 26.8546H253.604L241.827 38.8881Z" fill="#FFFFFE"/>
<path fill-rule="evenodd" clip-rule="evenodd" d="M229.718 54.6026H233.179V26.8546H229.718V54.6026Z" fill="#FFFFFE"/>
<path fill-rule="evenodd" clip-rule="evenodd" d="M218.349 42.5305C222.361 42.0524 225.01 38.7411 225.01 34.766C225.01 32.117 223.685 29.5036 221.367 28.142C219.159 26.8902 216.507 26.8546 214.044 26.8546H209.846V54.6011H213.306V42.8631H214.742L222.912 54.6011H227.108L218.349 42.5305ZM213.306 29.9446H214.228C217.648 29.9446 221.771 30.5712 221.771 34.9131C221.771 39.3291 217.943 39.9914 214.411 39.9914H213.306V29.9446Z" fill="#FFFFFE"/>
<path fill-rule="evenodd" clip-rule="evenodd" d="M200.538 30.0189H207.126V26.8546H190.491V30.0189H197.08V54.6011H200.538V30.0189Z" fill="#FFFFFE"/>
<path fill-rule="evenodd" clip-rule="evenodd" d="M173.895 54.6011H188.798V51.4368H177.354V40.9491H188.467V37.7833H177.354V30.0189H188.798V26.8546H173.895V54.6011Z" fill="#FFFFFE"/>
<path fill-rule="evenodd" clip-rule="evenodd" d="M155.605 55.1906L163.922 36.2747H163.995L167.235 54.6012H170.804L165.135 25.6771L155.605 47.5361L146.074 25.6771L140.406 54.6012H143.975L147.214 36.2747H147.287L155.605 55.1906Z" fill="#FFFFFE"/>
</svg>
