<svg width="155" height="160" viewBox="0 0 155 160" fill="none" xmlns="http://www.w3.org/2000/svg">
<path fill-rule="evenodd" clip-rule="evenodd" d="M55.037 1.04928C34.41 5.09627 16.15 18.8873 7.075 37.2763C2.033 47.4933 -0.00299669 56.0363 3.31006e-06 66.9613C0.00500331 83.1033 5.153 98.0173 14.764 109.729L19.468 115.461L19.968 136.938L20.468 158.416L23.323 159.418C25.779 160.281 26.442 160.094 28.073 158.08C29.804 155.942 29.968 153.848 29.968 133.931V112.123L24.974 106.292C4.26801 82.1163 4.89001 49.2783 26.468 27.3463C48.75 4.69927 83.407 4.22627 106.628 26.2533C115.02 34.2133 121.268 45.1173 123.471 55.6473C124.817 62.0803 125.195 62.6543 133.808 71.3923C144.622 82.3633 145.494 83.8363 143.946 88.5273C142.552 92.7513 138.692 94.9613 132.709 94.9613C125.704 94.9613 125.185 95.8583 124.788 108.656C124.496 118.035 124.108 120.297 122.392 122.595C117.945 128.551 115.704 129.422 103.442 129.961C97.182 130.236 91.576 130.948 90.983 131.542C90.294 132.234 90.007 137.268 90.187 145.52L90.468 158.416L93.323 159.418C95.779 160.281 96.442 160.094 98.073 158.08C99.575 156.225 99.968 154.104 99.968 147.85V139.961H106.819C123.996 139.961 133.64 130.769 134.726 113.361C135.187 105.974 135.478 104.961 137.141 104.961C140.177 104.961 146.24 102.073 149.242 99.1983C152.669 95.9153 155.214 87.8353 154.341 83.0063C153.307 77.2823 151.264 74.1993 142.444 65.0493C135.481 57.8263 133.909 55.5833 132.901 51.4313C131.11 44.0503 125.864 33.2723 120.645 26.2493C106.54 7.27027 78.409 -3.53473 55.037 1.04928ZM47.998 26.0743C43.311 27.9443 38.724 32.2573 36.802 36.6033C35.742 39.0003 34.288 40.9613 33.571 40.9613C30.819 40.9613 23.76 47.2053 21.913 51.2733C18.4 59.0113 20.237 69.2743 26.1 74.6633C28.815 77.1593 34.982 79.9613 37.762 79.9613C38.783 79.9613 40.71 81.1303 42.044 82.5583C52.187 93.4263 72.275 91.5373 80.017 78.9883C82.369 75.1763 82.682 75.0143 87.75 74.9883C96.487 74.9433 103.963 70.6283 107.719 63.4613C109.767 59.5533 109.746 50.3373 107.681 46.3593C105.518 42.1943 99.466 37.0113 95.943 36.3063C94.37 35.9913 91.655 34.1653 89.909 32.2473C84.048 25.8053 74.538 23.3023 67.468 26.3403C65.005 27.3993 63.892 27.3913 61.25 26.2953C57.529 24.7523 51.559 24.6523 47.998 26.0743ZM60.942 37.1893L64.813 39.4163L68.777 37.1893C70.957 35.9633 73.882 34.9613 75.277 34.9613C78.107 34.9613 83.968 39.3813 83.968 41.5153C83.968 43.2753 87.108 44.9613 90.386 44.9613C91.789 44.9613 94.396 46.2653 96.179 47.8593C98.863 50.2573 99.423 51.4813 99.423 54.9613C99.423 58.4413 98.863 59.6653 96.179 62.0633C93.198 64.7273 92.312 64.9623 85.202 64.9763C80.948 64.9853 76.923 65.3383 76.257 65.7613C75.591 66.1853 74.37 68.1493 73.543 70.1263C69.002 80.9953 55.198 83.1073 47.917 74.0473C45.22 70.6913 44.176 70.1393 39.706 69.7103C35.75 69.3303 34.061 68.6073 32.277 66.5343C27.429 60.8983 30.382 52.0143 37.632 50.4183C39.192 50.0753 41.034 49.6193 41.727 49.4063C43.091 48.9843 44.483 46.0773 45.426 41.6803C46.091 38.5753 51.106 34.9713 54.77 34.9653C56.036 34.9633 58.814 35.9633 60.942 37.1893Z" fill="white"/>
</svg>
